<?xml version="1.0" encoding="UTF-8"?><svg xmlns="http://www.w3.org/2000/svg" xmlns:xlink="http://www.w3.org/1999/xlink" fill-opacity="1" color-rendering="auto" color-interpolation="auto" text-rendering="auto" stroke="black" stroke-linecap="square" width="609" stroke-miterlimit="10" shape-rendering="auto" stroke-opacity="1" fill="black" stroke-dasharray="none" font-weight="normal" stroke-width="1" height="600" font-family="'Dialog'" font-style="normal" stroke-linejoin="miter" font-size="12px" stroke-dashoffset="0" image-rendering="auto">
  <!--Generated by ySVG 2.6-->
  <defs id="genericDefs"/>
  <g>
    <defs id="defs1">
      <linearGradient x1="414" gradientUnits="userSpaceOnUse" x2="494" y1="95" y2="171" id="linearGradient1" spreadMethod="reflect">
        <stop stop-opacity="1" stop-color="white" offset="0%"/>
        <stop stop-opacity="1" stop-color="white" offset="100%"/>
      </linearGradient>
      <linearGradient x1="439.5" gradientUnits="userSpaceOnUse" x2="468.5" y1="136" y2="176" id="linearGradient2" spreadMethod="reflect">
        <stop stop-opacity="1" stop-color="white" offset="0%"/>
        <stop stop-opacity="1" stop-color="white" offset="100%"/>
      </linearGradient>
      <linearGradient x1="482.5" gradientUnits="userSpaceOnUse" x2="524.5" y1="186" y2="262" id="linearGradient3" spreadMethod="reflect">
        <stop stop-opacity="1" stop-color="white" offset="0%"/>
        <stop stop-opacity="1" stop-color="white" offset="100%"/>
      </linearGradient>
      <linearGradient x1="489" gradientUnits="userSpaceOnUse" x2="518" y1="240.8543" y2="280.8543" id="linearGradient4" spreadMethod="reflect">
        <stop stop-opacity="1" stop-color="white" offset="0%"/>
        <stop stop-opacity="1" stop-color="white" offset="100%"/>
      </linearGradient>
      <linearGradient x1="364.5" gradientUnits="userSpaceOnUse" x2="393.5" y1="300.021" y2="340.021" id="linearGradient5" spreadMethod="reflect">
        <stop stop-opacity="1" stop-color="white" offset="0%"/>
        <stop stop-opacity="1" stop-color="white" offset="100%"/>
      </linearGradient>
      <linearGradient x1="364.5" gradientUnits="userSpaceOnUse" x2="393.5" y1="84" y2="124" id="linearGradient6" spreadMethod="reflect">
        <stop stop-opacity="1" stop-color="white" offset="0%"/>
        <stop stop-opacity="1" stop-color="white" offset="100%"/>
      </linearGradient>
      <linearGradient x1="652.5" gradientUnits="userSpaceOnUse" x2="732.5" y1="429.1876" y2="469.1876" id="linearGradient7" spreadMethod="reflect">
        <stop stop-opacity="1" stop-color="white" offset="0%"/>
        <stop stop-opacity="1" stop-color="white" offset="100%"/>
      </linearGradient>
      <linearGradient x1="533" gradientUnits="userSpaceOnUse" x2="613" y1="300.021" y2="340.021" id="linearGradient8" spreadMethod="reflect">
        <stop stop-opacity="1" stop-color="white" offset="0%"/>
        <stop stop-opacity="1" stop-color="white" offset="100%"/>
      </linearGradient>
      <linearGradient x1="652.5" gradientUnits="userSpaceOnUse" x2="732.5" y1="300.021" y2="399.1876" id="linearGradient9" spreadMethod="reflect">
        <stop stop-opacity="1" stop-color="white" offset="0%"/>
        <stop stop-opacity="1" stop-color="white" offset="100%"/>
      </linearGradient>
      <linearGradient x1="772" gradientUnits="userSpaceOnUse" x2="852" y1="379.2086" y2="419.2086" id="linearGradient10" spreadMethod="reflect">
        <stop stop-opacity="1" stop-color="white" offset="0%"/>
        <stop stop-opacity="1" stop-color="white" offset="100%"/>
      </linearGradient>
      <linearGradient x1="603" gradientUnits="userSpaceOnUse" x2="683" y1="205.3543" y2="245.3543" id="linearGradient11" spreadMethod="reflect">
        <stop stop-opacity="1" stop-color="white" offset="0%"/>
        <stop stop-opacity="1" stop-color="white" offset="100%"/>
      </linearGradient>
      <linearGradient x1="772" gradientUnits="userSpaceOnUse" x2="852" y1="280" y2="320" id="linearGradient12" spreadMethod="reflect">
        <stop stop-opacity="1" stop-color="white" offset="0%"/>
        <stop stop-opacity="1" stop-color="white" offset="100%"/>
      </linearGradient>
      <linearGradient x1="533" gradientUnits="userSpaceOnUse" x2="613" y1="359.1876" y2="399.1876" id="linearGradient13" spreadMethod="reflect">
        <stop stop-opacity="1" stop-color="white" offset="0%"/>
        <stop stop-opacity="1" stop-color="white" offset="100%"/>
      </linearGradient>
      <linearGradient x1="772" gradientUnits="userSpaceOnUse" x2="852" y1="329.6043" y2="369.6043" id="linearGradient14" spreadMethod="reflect">
        <stop stop-opacity="1" stop-color="white" offset="0%"/>
        <stop stop-opacity="1" stop-color="white" offset="100%"/>
      </linearGradient>
      <linearGradient x1="863" gradientUnits="userSpaceOnUse" x2="943" y1="210" y2="250" id="linearGradient15" spreadMethod="reflect">
        <stop stop-opacity="1" stop-color="white" offset="0%"/>
        <stop stop-opacity="1" stop-color="white" offset="100%"/>
      </linearGradient>
      <linearGradient x1="444.5" gradientUnits="userSpaceOnUse" x2="463.5" y1="125" y2="141" id="linearGradient16" spreadMethod="reflect">
        <stop stop-opacity="1" stop-color="white" offset="0%"/>
        <stop stop-opacity="1" stop-color="white" offset="100%"/>
      </linearGradient>
      <linearGradient x1="369.5" gradientUnits="userSpaceOnUse" x2="388.5" y1="74" y2="90" id="linearGradient17" spreadMethod="reflect">
        <stop stop-opacity="1" stop-color="white" offset="0%"/>
        <stop stop-opacity="1" stop-color="white" offset="100%"/>
      </linearGradient>
      <linearGradient x1="494" gradientUnits="userSpaceOnUse" x2="513" y1="234" y2="250" id="linearGradient18" spreadMethod="reflect">
        <stop stop-opacity="1" stop-color="white" offset="0%"/>
        <stop stop-opacity="1" stop-color="white" offset="100%"/>
      </linearGradient>
      <linearGradient x1="533" gradientUnits="userSpaceOnUse" x2="562" y1="-100" y2="-84" id="linearGradient19" spreadMethod="reflect">
        <stop stop-opacity="1" stop-color="white" offset="0%"/>
        <stop stop-opacity="1" stop-color="white" offset="100%"/>
      </linearGradient>
      <linearGradient x1="600.5" gradientUnits="userSpaceOnUse" x2="629.5" y1="-40" y2="-24" id="linearGradient20" spreadMethod="reflect">
        <stop stop-opacity="1" stop-color="white" offset="0%"/>
        <stop stop-opacity="1" stop-color="white" offset="100%"/>
      </linearGradient>
      <linearGradient x1="882" gradientUnits="userSpaceOnUse" x2="911" y1="-40" y2="-24" id="linearGradient21" spreadMethod="reflect">
        <stop stop-opacity="1" stop-color="white" offset="0%"/>
        <stop stop-opacity="1" stop-color="white" offset="100%"/>
      </linearGradient>
      <linearGradient x1="494" gradientUnits="userSpaceOnUse" x2="513" y1="110" y2="156" id="linearGradient22" spreadMethod="reflect">
        <stop stop-opacity="1" stop-color="white" offset="0%"/>
        <stop stop-opacity="1" stop-color="white" offset="100%"/>
      </linearGradient>
      <linearGradient x1="364.5" gradientUnits="userSpaceOnUse" x2="393.5" y1="143" y2="159" id="linearGradient23" spreadMethod="reflect">
        <stop stop-opacity="1" stop-color="white" offset="0%"/>
        <stop stop-opacity="1" stop-color="white" offset="100%"/>
      </linearGradient>
      <linearGradient x1="369.5" gradientUnits="userSpaceOnUse" x2="388.5" y1="292" y2="308" id="linearGradient24" spreadMethod="reflect">
        <stop stop-opacity="1" stop-color="white" offset="0%"/>
        <stop stop-opacity="1" stop-color="white" offset="100%"/>
      </linearGradient>
      <clipPath clipPathUnits="userSpaceOnUse" id="clipPath1">
        <path d="M0 0 L609 0 L609 600 L0 600 L0 0 Z"/>
      </clipPath>
      <clipPath clipPathUnits="userSpaceOnUse" id="clipPath2">
        <path d="M349 -115 L958 -115 L958 485 L349 485 L349 -115 Z"/>
      </clipPath>
    </defs>
    <g fill="white" text-rendering="geometricPrecision" shape-rendering="geometricPrecision" transform="translate(-349,115)" stroke="white">
      <rect x="349" width="609" height="600" y="-115" clip-path="url(#clipPath2)" stroke="none"/>
    </g>
    <g fill="url(#linearGradient1)" text-rendering="geometricPrecision" shape-rendering="geometricPrecision" transform="matrix(1,0,0,1,-349,115)" stroke="url(#linearGradient1)">
      <circle r="38" clip-path="url(#clipPath2)" cx="454" cy="133" stroke="none"/>
    </g>
    <g text-rendering="geometricPrecision" stroke-miterlimit="1.45" shape-rendering="geometricPrecision" transform="matrix(1,0,0,1,-349,115)" stroke-linecap="butt">
      <circle fill="none" r="38" clip-path="url(#clipPath2)" cx="454" cy="133"/>
    </g>
    <g fill="url(#linearGradient2)" text-rendering="geometricPrecision" shape-rendering="geometricPrecision" transform="matrix(1,0,0,1,-349,115)" stroke="url(#linearGradient2)">
      <path d="M449.5 136 L458.5 136 L468.5 146 L468.5 176 L439.5 176 L439.5 146 Z" stroke="none" clip-path="url(#clipPath2)"/>
    </g>
    <g text-rendering="geometricPrecision" stroke-miterlimit="1.45" shape-rendering="geometricPrecision" transform="matrix(1,0,0,1,-349,115)" stroke-linecap="butt">
      <path fill="none" d="M449.5 136 L458.5 136 L468.5 146 L468.5 176 L439.5 176 L439.5 146 Z" clip-path="url(#clipPath2)"/>
    </g>
    <g fill="url(#linearGradient3)" text-rendering="geometricPrecision" shape-rendering="geometricPrecision" transform="matrix(1,0,0,1,-349,115)" stroke="url(#linearGradient3)">
      <path d="M482.5 201.2 C483.76 186 523.24 186 524.5 201.2 L524.5 246.8 C523.24 262 483.76 262 482.5 246.8 Z" stroke="none" clip-path="url(#clipPath2)"/>
    </g>
    <g text-rendering="geometricPrecision" stroke-miterlimit="1.45" shape-rendering="geometricPrecision" transform="matrix(1,0,0,1,-349,115)" stroke-linecap="butt">
      <path fill="none" d="M482.5 201.2 C483.76 186 523.24 186 524.5 201.2 L524.5 246.8 C523.24 262 483.76 262 482.5 246.8 Z" clip-path="url(#clipPath2)"/>
      <path fill="none" d="M524.5 201.2 C523.24 216.4 483.76 216.4 482.5 201.2" clip-path="url(#clipPath2)"/>
      <text x="486.2617" xml:space="preserve" y="228.5352" clip-path="url(#clipPath2)" font-family="sans-serif" stroke="none">Motor</text>
    </g>
    <g fill="url(#linearGradient4)" text-rendering="geometricPrecision" shape-rendering="geometricPrecision" transform="matrix(1,0,0,1,-349,115)" stroke="url(#linearGradient4)">
      <path d="M499 240.8543 L508 240.8543 L518 250.8543 L518 280.8543 L489 280.8543 L489 250.8543 Z" stroke="none" clip-path="url(#clipPath2)"/>
    </g>
    <g text-rendering="geometricPrecision" stroke-miterlimit="1.45" shape-rendering="geometricPrecision" transform="matrix(1,0,0,1,-349,115)" stroke-linecap="butt">
      <path fill="none" d="M499 240.8543 L508 240.8543 L518 250.8543 L518 280.8543 L489 280.8543 L489 250.8543 Z" clip-path="url(#clipPath2)"/>
    </g>
    <g fill="url(#linearGradient5)" text-rendering="geometricPrecision" shape-rendering="geometricPrecision" transform="matrix(1,0,0,1,-349,115)" stroke="url(#linearGradient5)">
      <path d="M374.5 300.021 L383.5 300.021 L393.5 310.021 L393.5 340.021 L364.5 340.021 L364.5 310.021 Z" stroke="none" clip-path="url(#clipPath2)"/>
    </g>
    <g text-rendering="geometricPrecision" stroke-miterlimit="1.45" shape-rendering="geometricPrecision" transform="matrix(1,0,0,1,-349,115)" stroke-linecap="butt">
      <path fill="none" d="M374.5 300.021 L383.5 300.021 L393.5 310.021 L393.5 340.021 L364.5 340.021 L364.5 310.021 Z" clip-path="url(#clipPath2)"/>
    </g>
    <g fill="url(#linearGradient6)" text-rendering="geometricPrecision" shape-rendering="geometricPrecision" transform="matrix(1,0,0,1,-349,115)" stroke="url(#linearGradient6)">
      <path d="M374.5 84 L383.5 84 L393.5 94 L393.5 124 L364.5 124 L364.5 94 Z" stroke="none" clip-path="url(#clipPath2)"/>
    </g>
    <g text-rendering="geometricPrecision" stroke-miterlimit="1.45" shape-rendering="geometricPrecision" transform="matrix(1,0,0,1,-349,115)" stroke-linecap="butt">
      <path fill="none" d="M374.5 84 L383.5 84 L393.5 94 L393.5 124 L364.5 124 L364.5 94 Z" clip-path="url(#clipPath2)"/>
    </g>
    <g fill="url(#linearGradient7)" text-rendering="geometricPrecision" shape-rendering="geometricPrecision" transform="matrix(1,0,0,1,-349,115)" stroke="url(#linearGradient7)">
      <path d="M652.5 429.1876 L732.5 429.1876 L732.5 469.1876 L652.5 469.1876 Z" stroke="none" clip-path="url(#clipPath2)"/>
    </g>
    <g text-rendering="geometricPrecision" stroke-miterlimit="1.45" shape-rendering="geometricPrecision" transform="matrix(1,0,0,1,-349,115)" stroke-linecap="butt">
      <path fill="none" d="M652.5 429.1876 L732.5 429.1876 L732.5 469.1876 L652.5 469.1876 Z" clip-path="url(#clipPath2)"/>
      <text x="655.3896" xml:space="preserve" y="453.7228" clip-path="url(#clipPath2)" font-family="sans-serif" stroke="none">Bază de date</text>
    </g>
    <g fill="url(#linearGradient8)" text-rendering="geometricPrecision" shape-rendering="geometricPrecision" transform="matrix(1,0,0,1,-349,115)" stroke="url(#linearGradient8)">
      <path d="M533 300.021 L613 300.021 L613 340.021 L533 340.021 Z" stroke="none" clip-path="url(#clipPath2)"/>
    </g>
    <g text-rendering="geometricPrecision" stroke-miterlimit="1.45" shape-rendering="geometricPrecision" transform="matrix(1,0,0,1,-349,115)" stroke-linecap="butt">
      <path fill="none" d="M533 300.021 L613 300.021 L613 340.021 L533 340.021 Z" clip-path="url(#clipPath2)"/>
      <text x="551.7539" xml:space="preserve" y="324.5561" clip-path="url(#clipPath2)" font-family="sans-serif" stroke="none">Display</text>
    </g>
    <g fill="url(#linearGradient9)" text-rendering="geometricPrecision" shape-rendering="geometricPrecision" transform="matrix(1,0,0,1,-349,115)" stroke="url(#linearGradient9)">
      <path d="M652.5 300.021 L732.5 300.021 L732.5 399.1876 L652.5 399.1876 Z" stroke="none" clip-path="url(#clipPath2)"/>
    </g>
    <g text-rendering="geometricPrecision" stroke-miterlimit="1.45" shape-rendering="geometricPrecision" transform="matrix(1,0,0,1,-349,115)" stroke-linecap="butt">
      <path fill="none" d="M652.5 300.021 L732.5 300.021 L732.5 399.1876 L652.5 399.1876 Z" clip-path="url(#clipPath2)"/>
      <text x="667.4277" xml:space="preserve" y="354.1394" clip-path="url(#clipPath2)" font-family="sans-serif" stroke="none">Procesor</text>
    </g>
    <g fill="url(#linearGradient10)" text-rendering="geometricPrecision" shape-rendering="geometricPrecision" transform="matrix(1,0,0,1,-349,115)" stroke="url(#linearGradient10)">
      <path d="M772 379.2086 L852 379.2086 L852 419.2086 L772 419.2086 Z" stroke="none" clip-path="url(#clipPath2)"/>
    </g>
    <g text-rendering="geometricPrecision" stroke-miterlimit="1.45" shape-rendering="geometricPrecision" transform="matrix(1,0,0,1,-349,115)" stroke-linecap="butt">
      <path fill="none" d="M772 379.2086 L852 379.2086 L852 419.2086 L772 419.2086 Z" clip-path="url(#clipPath2)"/>
      <text x="792.1221" xml:space="preserve" y="403.7437" clip-path="url(#clipPath2)" font-family="sans-serif" stroke="none">Senzor</text>
    </g>
    <g fill="url(#linearGradient11)" text-rendering="geometricPrecision" shape-rendering="geometricPrecision" transform="matrix(1,0,0,1,-349,115)" stroke="url(#linearGradient11)">
      <path d="M603 205.3543 L683 205.3543 L683 245.3543 L603 245.3543 Z" stroke="none" clip-path="url(#clipPath2)"/>
    </g>
    <g text-rendering="geometricPrecision" stroke-miterlimit="1.45" shape-rendering="geometricPrecision" transform="matrix(1,0,0,1,-349,115)" stroke-linecap="butt">
      <path fill="none" d="M603 205.3543 L683 205.3543 L683 245.3543 L603 245.3543 Z" clip-path="url(#clipPath2)"/>
      <text x="625.4131" xml:space="preserve" y="229.8895" clip-path="url(#clipPath2)" font-family="sans-serif" stroke="none">Driver</text>
    </g>
    <g fill="url(#linearGradient12)" text-rendering="geometricPrecision" shape-rendering="geometricPrecision" transform="matrix(1,0,0,1,-349,115)" stroke="url(#linearGradient12)">
      <path d="M772 280 L852 280 L852 320 L772 320 Z" stroke="none" clip-path="url(#clipPath2)"/>
    </g>
    <g text-rendering="geometricPrecision" stroke-miterlimit="1.45" shape-rendering="geometricPrecision" transform="matrix(1,0,0,1,-349,115)" stroke-linecap="butt">
      <path fill="none" d="M772 280 L852 280 L852 320 L772 320 Z" clip-path="url(#clipPath2)"/>
      <text x="795.1719" xml:space="preserve" y="304.5352" clip-path="url(#clipPath2)" font-family="sans-serif" stroke="none">Buton</text>
    </g>
    <g fill="url(#linearGradient13)" text-rendering="geometricPrecision" shape-rendering="geometricPrecision" transform="matrix(1,0,0,1,-349,115)" stroke="url(#linearGradient13)">
      <path d="M533 359.1876 L613 359.1876 L613 399.1876 L533 399.1876 Z" stroke="none" clip-path="url(#clipPath2)"/>
    </g>
    <g text-rendering="geometricPrecision" stroke-miterlimit="1.45" shape-rendering="geometricPrecision" transform="matrix(1,0,0,1,-349,115)" stroke-linecap="butt">
      <path fill="none" d="M533 359.1876 L613 359.1876 L613 399.1876 L533 399.1876 Z" clip-path="url(#clipPath2)"/>
      <text x="554.7686" xml:space="preserve" y="383.7228" clip-path="url(#clipPath2)" font-family="sans-serif" stroke="none">Leduri</text>
    </g>
    <g fill="url(#linearGradient14)" text-rendering="geometricPrecision" shape-rendering="geometricPrecision" transform="matrix(1,0,0,1,-349,115)" stroke="url(#linearGradient14)">
      <path d="M772 329.6043 L852 329.6043 L852 369.6043 L772 369.6043 Z" stroke="none" clip-path="url(#clipPath2)"/>
    </g>
    <g text-rendering="geometricPrecision" stroke-miterlimit="1.45" shape-rendering="geometricPrecision" transform="matrix(1,0,0,1,-349,115)" stroke-linecap="butt">
      <path fill="none" d="M772 329.6043 L852 329.6043 L852 369.6043 L772 369.6043 Z" clip-path="url(#clipPath2)"/>
      <text x="789.8223" xml:space="preserve" y="354.1394" clip-path="url(#clipPath2)" font-family="sans-serif" stroke="none">Cameră</text>
    </g>
    <g fill="url(#linearGradient15)" text-rendering="geometricPrecision" shape-rendering="geometricPrecision" transform="matrix(1,0,0,1,-349,115)" stroke="url(#linearGradient15)">
      <path d="M863 210 L943 210 L943 250 L863 250 Z" stroke="none" clip-path="url(#clipPath2)"/>
    </g>
    <g text-rendering="geometricPrecision" stroke-miterlimit="1.45" shape-rendering="geometricPrecision" transform="matrix(1,0,0,1,-349,115)" stroke-linecap="butt">
      <path fill="none" d="M863 210 L943 210 L943 250 L863 250 Z" clip-path="url(#clipPath2)"/>
      <text x="887.2178" xml:space="preserve" y="234.5352" clip-path="url(#clipPath2)" font-family="sans-serif" stroke="none">Sursă</text>
    </g>
    <g fill="url(#linearGradient16)" text-rendering="geometricPrecision" shape-rendering="geometricPrecision" transform="matrix(1,0,0,1,-349,115)" stroke="url(#linearGradient16)">
      <circle r="8" clip-path="url(#clipPath2)" cx="454" cy="133" stroke="none"/>
    </g>
    <g text-rendering="geometricPrecision" stroke-miterlimit="1.45" shape-rendering="geometricPrecision" transform="matrix(1,0,0,1,-349,115)" stroke-linecap="butt">
      <circle fill="none" r="8" clip-path="url(#clipPath2)" cx="454" cy="133"/>
    </g>
    <g fill="url(#linearGradient17)" text-rendering="geometricPrecision" shape-rendering="geometricPrecision" transform="matrix(1,0,0,1,-349,115)" stroke="url(#linearGradient17)">
      <circle r="8" clip-path="url(#clipPath2)" cx="379" cy="82" stroke="none"/>
    </g>
    <g text-rendering="geometricPrecision" stroke-miterlimit="1.45" shape-rendering="geometricPrecision" transform="matrix(1,0,0,1,-349,115)" stroke-linecap="butt">
      <circle fill="none" r="8" clip-path="url(#clipPath2)" cx="379" cy="82"/>
    </g>
    <g fill="url(#linearGradient18)" text-rendering="geometricPrecision" shape-rendering="geometricPrecision" transform="matrix(1,0,0,1,-349,115)" stroke="url(#linearGradient18)">
      <circle r="8" clip-path="url(#clipPath2)" cx="503.5" cy="242" stroke="none"/>
    </g>
    <g text-rendering="geometricPrecision" stroke-miterlimit="1.45" shape-rendering="geometricPrecision" transform="matrix(1,0,0,1,-349,115)" stroke-linecap="butt">
      <circle fill="none" r="8" clip-path="url(#clipPath2)" cx="503.5" cy="242"/>
    </g>
    <g fill="url(#linearGradient19)" text-rendering="geometricPrecision" shape-rendering="geometricPrecision" transform="matrix(1,0,0,1,-349,115)" stroke="url(#linearGradient19)">
      <circle r="8" clip-path="url(#clipPath2)" cx="547.5" cy="-92" stroke="none"/>
    </g>
    <g text-rendering="geometricPrecision" stroke-miterlimit="1.45" shape-rendering="geometricPrecision" transform="matrix(1,0,0,1,-349,115)" stroke-linecap="butt">
      <circle fill="none" r="8" clip-path="url(#clipPath2)" cx="547.5" cy="-92"/>
    </g>
    <g fill="url(#linearGradient20)" text-rendering="geometricPrecision" shape-rendering="geometricPrecision" transform="matrix(1,0,0,1,-349,115)" stroke="url(#linearGradient20)">
      <circle r="8" clip-path="url(#clipPath2)" cx="615" cy="-32" stroke="none"/>
    </g>
    <g text-rendering="geometricPrecision" stroke-miterlimit="1.45" shape-rendering="geometricPrecision" transform="matrix(1,0,0,1,-349,115)" stroke-linecap="butt">
      <circle fill="none" r="8" clip-path="url(#clipPath2)" cx="615" cy="-32"/>
    </g>
    <g fill="url(#linearGradient21)" text-rendering="geometricPrecision" shape-rendering="geometricPrecision" transform="matrix(1,0,0,1,-349,115)" stroke="url(#linearGradient21)">
      <circle r="8" clip-path="url(#clipPath2)" cx="896.5" cy="-32" stroke="none"/>
    </g>
    <g text-rendering="geometricPrecision" stroke-miterlimit="1.45" shape-rendering="geometricPrecision" transform="matrix(1,0,0,1,-349,115)" stroke-linecap="butt">
      <circle fill="none" r="8" clip-path="url(#clipPath2)" cx="896.5" cy="-32"/>
      <text x="734.7471" xml:space="preserve" y="-48.5312" clip-path="url(#clipPath2)" font-family="sans-serif" stroke="none">Braț barieră</text>
    </g>
    <g fill="url(#linearGradient22)" text-rendering="geometricPrecision" shape-rendering="geometricPrecision" transform="matrix(1,0,0,1,-349,115)" stroke="url(#linearGradient22)">
      <path d="M494 119.2 C494.57 110 512.43 110 513 119.2 L513 146.8 C512.43 156 494.57 156 494 146.8 Z" stroke="none" clip-path="url(#clipPath2)"/>
    </g>
    <g text-rendering="geometricPrecision" stroke-miterlimit="1.45" shape-rendering="geometricPrecision" transform="matrix(1,0,0,1,-349,115)" stroke-linecap="butt">
      <path fill="none" d="M494 119.2 C494.57 110 512.43 110 513 119.2 L513 146.8 C512.43 156 494.57 156 494 146.8 Z" clip-path="url(#clipPath2)"/>
      <path fill="none" d="M513 119.2 C512.43 128.4 494.57 128.4 494 119.2" clip-path="url(#clipPath2)"/>
      <text x="519" xml:space="preserve" y="130.4688" clip-path="url(#clipPath2)" font-family="sans-serif" stroke="none">Angrenaj</text>
    </g>
    <g fill="url(#linearGradient23)" text-rendering="geometricPrecision" shape-rendering="geometricPrecision" transform="matrix(1,0,0,1,-349,115)" stroke="url(#linearGradient23)">
      <circle r="8" clip-path="url(#clipPath2)" cx="379" cy="151" stroke="none"/>
    </g>
    <g text-rendering="geometricPrecision" stroke-miterlimit="1.45" shape-rendering="geometricPrecision" transform="matrix(1,0,0,1,-349,115)" stroke-linecap="butt">
      <circle fill="none" r="8" clip-path="url(#clipPath2)" cx="379" cy="151"/>
      <text x="394.332" xml:space="preserve" y="236.5352" clip-path="url(#clipPath2)" font-family="sans-serif" stroke="none">Arc</text>
    </g>
    <g fill="url(#linearGradient24)" text-rendering="geometricPrecision" shape-rendering="geometricPrecision" transform="matrix(1,0,0,1,-349,115)" stroke="url(#linearGradient24)">
      <circle r="8" clip-path="url(#clipPath2)" cx="379" cy="300" stroke="none"/>
    </g>
    <g text-rendering="geometricPrecision" stroke-miterlimit="1.45" shape-rendering="geometricPrecision" transform="matrix(1,0,0,1,-349,115)" stroke-linecap="butt">
      <circle fill="none" r="8" clip-path="url(#clipPath2)" cx="379" cy="300"/>
    </g>
    <g text-rendering="geometricPrecision" stroke-miterlimit="1.45" shape-rendering="geometricPrecision" transform="matrix(1,0,0,1,-349,115)" stroke-linecap="butt">
      <path fill="none" d="M692.5 407.1528 L692.5 421.203" clip-path="url(#clipPath2)"/>
    </g>
    <g text-rendering="geometricPrecision" stroke-miterlimit="1.45" shape-rendering="geometricPrecision" transform="matrix(1,0,0,1,-349,115)" stroke-linecap="butt">
      <path d="M692.5 399.1528 L687.5 411.1528 L692.5 408.1528 L697.5 411.1528 Z" stroke="none" clip-path="url(#clipPath2)"/>
      <path d="M692.5 429.203 L697.5 417.203 L692.5 420.203 L687.5 417.203 Z" clip-path="url(#clipPath2)" stroke="none"/>
      <path fill="none" d="M652.4904 320.021 L621.0168 320.021" clip-path="url(#clipPath2)"/>
      <path d="M613.0168 320.021 L625.0168 325.021 L622.0168 320.021 L625.0168 315.021 Z" clip-path="url(#clipPath2)" stroke="none"/>
      <path fill="none" d="M771.9783 399.2086 L740.5 399.2086" clip-path="url(#clipPath2)"/>
      <path d="M732.5 399.2086 L744.5 404.2086 L741.5 399.2086 L744.5 394.2086 Z" clip-path="url(#clipPath2)" stroke="none"/>
      <path fill="none" d="M664.5 300.0356 L664.5 253.3209" clip-path="url(#clipPath2)"/>
      <path d="M664.5 245.3209 L659.5 257.3209 L664.5 254.3209 L669.5 257.3209 Z" clip-path="url(#clipPath2)" stroke="none"/>
      <path fill="none" d="M602.9823 224.9658 L532.5328 224.2819" clip-path="url(#clipPath2)"/>
      <path d="M524.5331 224.2042 L536.484 229.3205 L533.5327 224.2916 L536.5811 219.3209 Z" clip-path="url(#clipPath2)" stroke="none"/>
      <path fill="none" d="M772.0217 300 L741.5 300" clip-path="url(#clipPath2)"/>
      <path d="M733.5 300 L745.5 305 L742.5 300 L745.5 295 Z" clip-path="url(#clipPath2)" stroke="none"/>
      <path fill="none" d="M652.5092 379.1876 L621.0264 379.1876" clip-path="url(#clipPath2)"/>
      <path d="M613.0264 379.1876 L625.0264 384.1876 L622.0264 379.1876 L625.0264 374.1876 Z" clip-path="url(#clipPath2)" stroke="none"/>
      <path fill="none" d="M772.0013 349.6043 L740.5224 349.6043" clip-path="url(#clipPath2)"/>
      <path d="M732.5224 349.6043 L744.5224 354.6043 L741.5224 349.6043 L744.5224 344.6043 Z" clip-path="url(#clipPath2)" stroke="none"/>
      <path fill="none" d="M881 250.0038 L881 300 L859.9917 300" clip-path="url(#clipPath2)"/>
      <path d="M851.9917 300 L863.9917 305 L860.9917 300 L863.9917 295 Z" clip-path="url(#clipPath2)" stroke="none"/>
      <path fill="none" d="M903 250.0022 L903 349.6043 L860.0347 349.6043" clip-path="url(#clipPath2)"/>
      <path d="M852.0347 349.6043 L864.0347 354.6043 L861.0347 349.6043 L864.0347 344.6043 Z" clip-path="url(#clipPath2)" stroke="none"/>
      <path fill="none" d="M928.5 249.9696 L928.5 400 L860.0182 399.5348" clip-path="url(#clipPath2)"/>
      <path d="M852.0184 399.4804 L863.9842 404.5619 L861.0182 399.5416 L864.0521 394.5621 Z" clip-path="url(#clipPath2)" stroke="none"/>
      <path fill="none" d="M862.9922 225.3543 L690.9864 225.3543" clip-path="url(#clipPath2)"/>
      <path d="M682.9864 225.3543 L694.9864 230.3543 L691.9864 225.3543 L694.9864 220.3543 Z" clip-path="url(#clipPath2)" stroke="none"/>
      <path fill="none" d="M862.9766 244.5 L714.5 244.5 L714.5 292.0078" clip-path="url(#clipPath2)"/>
      <path d="M714.5 300.0078 L719.5 288.0078 L714.5 291.0078 L709.5 288.0078 Z" clip-path="url(#clipPath2)" stroke="none"/>
      <path fill="none" d="M384.5742 76.2439 L541.9511 -86.27" stroke-width="6" clip-path="url(#clipPath2)"/>
      <path fill="none" d="M459.6012 127.2596 L609.404 -26.2649" stroke-width="6" clip-path="url(#clipPath2)"/>
      <path fill="none" d="M553.4656 -86.6973 L609.0208 -37.3148" stroke-width="6" clip-path="url(#clipPath2)"/>
      <path fill="none" d="M623.0065 -32 L888.5209 -32" stroke-width="6" clip-path="url(#clipPath2)"/>
      <path fill="none" d="M503.5 189.7725 L503.5 153.7075" stroke-width="4" clip-path="url(#clipPath2)"/>
      <path fill="none" d="M386.8003 149.1279 L446.2235 134.8664" stroke-width="6" clip-path="url(#clipPath2)"/>
      <path fill="none" stroke-dasharray="24,8" d="M379 158.9666 L379 291.9774" stroke-width="4" clip-path="url(#clipPath2)"/>
    </g>
  </g>
</svg>
