<?xml version="1.0" encoding="UTF-8"?><svg xmlns="http://www.w3.org/2000/svg" xmlns:xlink="http://www.w3.org/1999/xlink" fill-opacity="1" color-rendering="auto" color-interpolation="auto" text-rendering="auto" stroke="black" stroke-linecap="square" width="663" stroke-miterlimit="10" shape-rendering="auto" stroke-opacity="1" fill="black" stroke-dasharray="none" font-weight="normal" stroke-width="1" height="643" font-family="'Dialog'" font-style="normal" stroke-linejoin="miter" font-size="12px" stroke-dashoffset="0" image-rendering="auto">
  <!--Generated by ySVG 2.6-->
  <defs id="genericDefs"/>
  <g>
    <defs id="defs1">
      <clipPath clipPathUnits="userSpaceOnUse" id="clipPath1">
        <path d="M0 0 L663 0 L663 643 L0 643 L0 0 Z"/>
      </clipPath>
      <clipPath clipPathUnits="userSpaceOnUse" id="clipPath2">
        <path d="M-195 15 L468 15 L468 658 L-195 658 L-195 15 Z"/>
      </clipPath>
    </defs>
    <g fill="white" text-rendering="geometricPrecision" shape-rendering="geometricPrecision" transform="translate(195,-15)" stroke="white">
      <rect x="-195" width="663" height="643" y="15" clip-path="url(#clipPath2)" stroke="none"/>
    </g>
    <g fill="white" text-rendering="geometricPrecision" shape-rendering="geometricPrecision" transform="matrix(1,0,0,1,195,-15)" stroke="white">
      <rect x="181.2994" width="138.4011" height="41" y="93" clip-path="url(#clipPath2)" stroke="none"/>
    </g>
    <g text-rendering="geometricPrecision" stroke-miterlimit="1.45" shape-rendering="geometricPrecision" transform="matrix(1,0,0,1,195,-15)" stroke-linecap="butt">
      <rect fill="none" x="181.2994" width="138.4011" height="41" y="93" clip-path="url(#clipPath2)"/>
      <text x="199.6348" xml:space="preserve" y="110.9688" clip-path="url(#clipPath2)" font-family="sans-serif" stroke="none">Capturare imagine</text>
      <text x="192.6855" xml:space="preserve" y="125.1016" clip-path="url(#clipPath2)" font-family="sans-serif" stroke="none">(la interval prestabilit)</text>
    </g>
    <g fill="white" text-rendering="geometricPrecision" shape-rendering="geometricPrecision" transform="matrix(1,0,0,1,195,-15)" stroke="white">
      <ellipse rx="44.5" ry="16.5" clip-path="url(#clipPath2)" cx="250.5" cy="46.5" stroke="none"/>
    </g>
    <g text-rendering="geometricPrecision" stroke-miterlimit="1.45" shape-rendering="geometricPrecision" transform="matrix(1,0,0,1,195,-15)" stroke-linecap="butt">
      <ellipse rx="44.5" fill="none" ry="16.5" clip-path="url(#clipPath2)" cx="250.5" cy="46.5"/>
      <text x="237.0117" xml:space="preserve" y="51.0352" clip-path="url(#clipPath2)" font-family="sans-serif" stroke="none">Start</text>
    </g>
    <g fill="white" text-rendering="geometricPrecision" shape-rendering="geometricPrecision" transform="matrix(1,0,0,1,195,-15)" stroke="white">
      <rect x="181.2994" width="138.4011" height="41" y="164" clip-path="url(#clipPath2)" stroke="none"/>
    </g>
    <g text-rendering="geometricPrecision" stroke-miterlimit="1.45" shape-rendering="geometricPrecision" transform="matrix(1,0,0,1,195,-15)" stroke-linecap="butt">
      <rect fill="none" x="181.2994" width="138.4011" height="41" y="164" clip-path="url(#clipPath2)"/>
      <text x="190.6846" xml:space="preserve" y="181.9688" clip-path="url(#clipPath2)" font-family="sans-serif" stroke="none">Recunoaștere număr</text>
      <text x="216.1758" xml:space="preserve" y="196.1016" clip-path="url(#clipPath2)" font-family="sans-serif" stroke="none">din imagine</text>
    </g>
    <g fill="white" text-rendering="geometricPrecision" shape-rendering="geometricPrecision" transform="matrix(1,0,0,1,195,-15)" stroke="white">
      <rect x="-179.5028" width="138.4011" height="41" y="389" clip-path="url(#clipPath2)" stroke="none"/>
    </g>
    <g text-rendering="geometricPrecision" stroke-miterlimit="1.45" shape-rendering="geometricPrecision" transform="matrix(1,0,0,1,195,-15)" stroke-linecap="butt">
      <rect fill="none" x="-179.5028" width="138.4011" height="41" y="389" clip-path="url(#clipPath2)"/>
      <text x="-149.5923" xml:space="preserve" y="406.9688" clip-path="url(#clipPath2)" font-family="sans-serif" stroke="none">Afișare mesaj</text>
      <text x="-153.6264" xml:space="preserve" y="421.1016" clip-path="url(#clipPath2)" font-family="sans-serif" stroke="none">„Acces permis”</text>
    </g>
    <g fill="white" text-rendering="geometricPrecision" shape-rendering="geometricPrecision" transform="matrix(1,0,0,1,195,-15)" stroke="white">
      <path d="M181.2994 258.5 L250.5 235 L319.7006 258.5 L250.5 282 Z" fill-rule="evenodd" clip-path="url(#clipPath2)" stroke="none"/>
    </g>
    <g text-rendering="geometricPrecision" stroke-miterlimit="1.45" shape-rendering="geometricPrecision" transform="matrix(1,0,0,1,195,-15)" stroke-linecap="butt">
      <path fill="none" d="M181.2994 258.5 L250.5 235 L319.7006 258.5 L250.5 282 Z" fill-rule="evenodd" clip-path="url(#clipPath2)"/>
      <text x="230.9736" xml:space="preserve" y="255.9688" clip-path="url(#clipPath2)" font-family="sans-serif" stroke="none">Număr</text>
      <text x="224.3877" xml:space="preserve" y="270.1016" clip-path="url(#clipPath2)" font-family="sans-serif" stroke="none">detectat?</text>
      <text x="336.5443" xml:space="preserve" y="252.6016" clip-path="url(#clipPath2)" font-family="sans-serif" stroke="none">Nu</text>
      <text x="159.6842" xml:space="preserve" y="252.6016" clip-path="url(#clipPath2)" font-family="sans-serif" stroke="none">Da</text>
    </g>
    <g fill="white" text-rendering="geometricPrecision" shape-rendering="geometricPrecision" transform="matrix(1,0,0,1,195,-15)" stroke="white">
      <rect x="0.8983" width="138.4011" height="41" y="312" clip-path="url(#clipPath2)" stroke="none"/>
    </g>
    <g text-rendering="geometricPrecision" stroke-miterlimit="1.45" shape-rendering="geometricPrecision" transform="matrix(1,0,0,1,195,-15)" stroke-linecap="butt">
      <rect fill="none" x="0.8983" width="138.4011" height="41" y="312" clip-path="url(#clipPath2)"/>
      <text x="21.803" xml:space="preserve" y="329.9688" clip-path="url(#clipPath2)" font-family="sans-serif" stroke="none">Verificare număr</text>
      <text x="25.3069" xml:space="preserve" y="344.1016" clip-path="url(#clipPath2)" font-family="sans-serif" stroke="none">în baza de date</text>
    </g>
    <g fill="white" text-rendering="geometricPrecision" shape-rendering="geometricPrecision" transform="matrix(1,0,0,1,195,-15)" stroke="white">
      <path d="M0.8983 409.5 L70.0989 386 L139.2995 409.5 L70.0989 433 Z" fill-rule="evenodd" clip-path="url(#clipPath2)" stroke="none"/>
    </g>
    <g text-rendering="geometricPrecision" stroke-miterlimit="1.45" shape-rendering="geometricPrecision" transform="matrix(1,0,0,1,195,-15)" stroke-linecap="butt">
      <path fill="none" d="M0.8983 409.5 L70.0989 386 L139.2995 409.5 L70.0989 433 Z" fill-rule="evenodd" clip-path="url(#clipPath2)"/>
      <text x="53.4114" xml:space="preserve" y="406.9688" clip-path="url(#clipPath2)" font-family="sans-serif" stroke="none">Acces</text>
      <text x="41.4143" xml:space="preserve" y="421.1016" clip-path="url(#clipPath2)" font-family="sans-serif" stroke="none">autorizat?</text>
      <text x="156.1432" xml:space="preserve" y="403.6016" clip-path="url(#clipPath2)" font-family="sans-serif" stroke="none">Nu</text>
      <text x="-20.7169" xml:space="preserve" y="403.6016" clip-path="url(#clipPath2)" font-family="sans-serif" stroke="none">Da</text>
    </g>
    <g fill="white" text-rendering="geometricPrecision" shape-rendering="geometricPrecision" transform="matrix(1,0,0,1,195,-15)" stroke="white">
      <rect x="-179.5028" width="138.4011" height="41" y="460" clip-path="url(#clipPath2)" stroke="none"/>
    </g>
    <g text-rendering="geometricPrecision" stroke-miterlimit="1.45" shape-rendering="geometricPrecision" transform="matrix(1,0,0,1,195,-15)" stroke-linecap="butt">
      <rect fill="none" x="-179.5028" width="138.4011" height="41" y="460" clip-path="url(#clipPath2)"/>
      <text x="-139.0483" xml:space="preserve" y="477.9688" clip-path="url(#clipPath2)" font-family="sans-serif" stroke="none">Aprindere</text>
      <text x="-139.1684" xml:space="preserve" y="492.1016" clip-path="url(#clipPath2)" font-family="sans-serif" stroke="none">LED verde</text>
    </g>
    <g fill="white" text-rendering="geometricPrecision" shape-rendering="geometricPrecision" transform="matrix(1,0,0,1,195,-15)" stroke="white">
      <rect x="-179.5028" width="138.4011" height="41" y="531" clip-path="url(#clipPath2)" stroke="none"/>
    </g>
    <g text-rendering="geometricPrecision" stroke-miterlimit="1.45" shape-rendering="geometricPrecision" transform="matrix(1,0,0,1,195,-15)" stroke-linecap="butt">
      <rect fill="none" x="-179.5028" width="138.4011" height="41" y="531" clip-path="url(#clipPath2)"/>
      <text x="-151.2534" xml:space="preserve" y="548.9688" clip-path="url(#clipPath2)" font-family="sans-serif" stroke="none">Înregistrare în</text>
      <text x="-147.7378" xml:space="preserve" y="563.1016" clip-path="url(#clipPath2)" font-family="sans-serif" stroke="none">baza de date</text>
    </g>
    <g fill="white" text-rendering="geometricPrecision" shape-rendering="geometricPrecision" transform="matrix(1,0,0,1,195,-15)" stroke="white">
      <rect x="-179.5028" width="138.4011" height="41" y="602" clip-path="url(#clipPath2)" stroke="none"/>
    </g>
    <g text-rendering="geometricPrecision" stroke-miterlimit="1.45" shape-rendering="geometricPrecision" transform="matrix(1,0,0,1,195,-15)" stroke-linecap="butt">
      <rect fill="none" x="-179.5028" width="138.4011" height="41" y="602" clip-path="url(#clipPath2)"/>
      <text x="-138.0141" xml:space="preserve" y="619.9688" clip-path="url(#clipPath2)" font-family="sans-serif" stroke="none">Acționare</text>
      <text x="-162.0405" xml:space="preserve" y="634.1016" clip-path="url(#clipPath2)" font-family="sans-serif" stroke="none">mecanism barieră</text>
    </g>
    <g fill="white" text-rendering="geometricPrecision" shape-rendering="geometricPrecision" transform="matrix(1,0,0,1,195,-15)" stroke="white">
      <rect x="181.2994" width="138.4011" height="41" y="389" clip-path="url(#clipPath2)" stroke="none"/>
    </g>
    <g text-rendering="geometricPrecision" stroke-miterlimit="1.45" shape-rendering="geometricPrecision" transform="matrix(1,0,0,1,195,-15)" stroke-linecap="butt">
      <rect fill="none" x="181.2994" width="138.4011" height="41" y="389" clip-path="url(#clipPath2)"/>
      <text x="211.21" xml:space="preserve" y="406.9688" clip-path="url(#clipPath2)" font-family="sans-serif" stroke="none">Afișare mesaj</text>
      <text x="205.4121" xml:space="preserve" y="421.1016" clip-path="url(#clipPath2)" font-family="sans-serif" stroke="none">„Acces interzis”</text>
    </g>
    <g fill="white" text-rendering="geometricPrecision" shape-rendering="geometricPrecision" transform="matrix(1,0,0,1,195,-15)" stroke="white">
      <rect x="181.2994" width="138.4011" height="41" y="460" clip-path="url(#clipPath2)" stroke="none"/>
    </g>
    <g text-rendering="geometricPrecision" stroke-miterlimit="1.45" shape-rendering="geometricPrecision" transform="matrix(1,0,0,1,195,-15)" stroke-linecap="butt">
      <rect fill="none" x="181.2994" width="138.4011" height="41" y="460" clip-path="url(#clipPath2)"/>
      <text x="221.7539" xml:space="preserve" y="477.9688" clip-path="url(#clipPath2)" font-family="sans-serif" stroke="none">Aprindere</text>
      <text x="224.7334" xml:space="preserve" y="492.1016" clip-path="url(#clipPath2)" font-family="sans-serif" stroke="none">LED roșu</text>
    </g>
    <g fill="white" text-rendering="geometricPrecision" shape-rendering="geometricPrecision" transform="matrix(1,0,0,1,195,-15)" stroke="white">
      <rect x="0.8983" width="138.4011" height="41" y="238" clip-path="url(#clipPath2)" stroke="none"/>
    </g>
    <g text-rendering="geometricPrecision" stroke-miterlimit="1.45" shape-rendering="geometricPrecision" transform="matrix(1,0,0,1,195,-15)" stroke-linecap="butt">
      <rect fill="none" x="0.8983" width="138.4011" height="41" y="238" clip-path="url(#clipPath2)"/>
      <text x="30.4895" xml:space="preserve" y="255.9688" clip-path="url(#clipPath2)" font-family="sans-serif" stroke="none">Request către</text>
      <text x="17.47" xml:space="preserve" y="270.1016" clip-path="url(#clipPath2)" font-family="sans-serif" stroke="none">server cu numărul</text>
      <path fill="none" d="M250.5 63 L250.5 85" clip-path="url(#clipPath2)"/>
      <path d="M250.5 93 L255.5 81 L250.5 84 L245.5 81 Z" clip-path="url(#clipPath2)" stroke="none"/>
      <path fill="none" d="M250.5 134 L250.5 156" clip-path="url(#clipPath2)"/>
      <path d="M250.5 164 L255.5 152 L250.5 155 L245.5 152 Z" clip-path="url(#clipPath2)" stroke="none"/>
      <path fill="none" d="M250.5 205 L250.5 227.0154" clip-path="url(#clipPath2)"/>
      <path d="M250.5 235.0154 L255.5 223.0154 L250.5 226.0154 L245.5 223.0154 Z" clip-path="url(#clipPath2)" stroke="none"/>
      <path fill="none" d="M319.7003 258.5 L367 258.5 L367 113.5 L327.7006 113.5" clip-path="url(#clipPath2)"/>
      <path d="M319.7006 113.5 L331.7006 118.5 L328.7006 113.5 L331.7006 108.5 Z" clip-path="url(#clipPath2)" stroke="none"/>
      <path fill="none" d="M70.0989 353 L70.0989 378.0227" clip-path="url(#clipPath2)"/>
      <path d="M70.0989 386.0227 L75.0989 374.0227 L70.0989 377.0227 L65.0989 374.0227 Z" clip-path="url(#clipPath2)" stroke="none"/>
      <path fill="none" d="M0.907 409.5 L-33.1017 409.5" clip-path="url(#clipPath2)"/>
      <path d="M-41.1017 409.5 L-29.1017 414.5 L-32.1017 409.5 L-29.1017 404.5 Z" clip-path="url(#clipPath2)" stroke="none"/>
      <path fill="none" d="M-110.3022 430 L-110.3022 452" clip-path="url(#clipPath2)"/>
      <path d="M-110.3022 460 L-105.3022 448 L-110.3022 451 L-115.3022 448 Z" clip-path="url(#clipPath2)" stroke="none"/>
      <path fill="none" d="M-110.3022 501 L-110.3022 523" clip-path="url(#clipPath2)"/>
      <path d="M-110.3022 531 L-105.3022 519 L-110.3022 522 L-115.3022 519 Z" clip-path="url(#clipPath2)" stroke="none"/>
      <path fill="none" d="M-110.3022 572 L-110.3022 594" clip-path="url(#clipPath2)"/>
      <path d="M-110.3022 602 L-105.3022 590 L-110.3022 593 L-115.3022 590 Z" clip-path="url(#clipPath2)" stroke="none"/>
      <path fill="none" d="M-41.1017 622.5 L452.5515 622.5 L452.5515 113.5 L327.7103 113.5" clip-path="url(#clipPath2)"/>
      <path d="M319.7103 113.5 L331.7103 118.5 L328.7103 113.5 L331.7103 108.5 Z" clip-path="url(#clipPath2)" stroke="none"/>
      <path fill="none" d="M139.2908 409.5 L173.2994 409.5" clip-path="url(#clipPath2)"/>
      <path d="M181.2994 409.5 L169.2994 404.5 L172.2994 409.5 L169.2994 414.5 Z" clip-path="url(#clipPath2)" stroke="none"/>
      <path fill="none" d="M250.5 430 L250.5 452" clip-path="url(#clipPath2)"/>
      <path d="M250.5 460 L255.5 448 L250.5 451 L245.5 448 Z" clip-path="url(#clipPath2)" stroke="none"/>
      <path fill="none" d="M319.7006 480.5 L452.5515 480.5 L452.5515 113.5 L327.7101 113.5" clip-path="url(#clipPath2)"/>
      <path d="M319.7101 113.5 L331.7101 118.5 L328.7101 113.5 L331.7101 108.5 Z" clip-path="url(#clipPath2)" stroke="none"/>
      <path fill="none" d="M181.3081 258.5 L147.2994 258.5" clip-path="url(#clipPath2)"/>
      <path d="M139.2994 258.5 L151.2994 263.5 L148.2994 258.5 L151.2994 253.5 Z" clip-path="url(#clipPath2)" stroke="none"/>
      <path fill="none" d="M70.0989 279 L70.0989 304" clip-path="url(#clipPath2)"/>
      <path d="M70.0989 312 L75.0989 300 L70.0989 303 L65.0989 300 Z" clip-path="url(#clipPath2)" stroke="none"/>
    </g>
  </g>
</svg>
