<?xml version="1.0" encoding="UTF-8"?><svg xmlns="http://www.w3.org/2000/svg" xmlns:xlink="http://www.w3.org/1999/xlink" fill-opacity="1" color-rendering="auto" color-interpolation="auto" text-rendering="auto" stroke="black" stroke-linecap="square" width="829" stroke-miterlimit="10" shape-rendering="auto" stroke-opacity="1" fill="black" stroke-dasharray="none" font-weight="normal" stroke-width="1" height="468" font-family="'Dialog'" font-style="normal" stroke-linejoin="miter" font-size="12px" stroke-dashoffset="0" image-rendering="auto">
  <!--Generated by ySVG 2.6-->
  <defs id="genericDefs"/>
  <g>
    <defs id="defs1">
      <linearGradient x1="351" gradientUnits="userSpaceOnUse" x2="504" y1="-64.6043" y2="-24.6043" id="linearGradient1" spreadMethod="reflect">
        <stop stop-opacity="1" stop-color="white" offset="0%"/>
        <stop stop-opacity="1" stop-color="white" offset="100%"/>
      </linearGradient>
      <linearGradient x1="351" gradientUnits="userSpaceOnUse" x2="504" y1="-8.2086" y2="31.7914" id="linearGradient2" spreadMethod="reflect">
        <stop stop-opacity="1" stop-color="white" offset="0%"/>
        <stop stop-opacity="1" stop-color="white" offset="100%"/>
      </linearGradient>
      <linearGradient x1="351" gradientUnits="userSpaceOnUse" x2="504" y1="49.1252" y2="89.1252" id="linearGradient3" spreadMethod="reflect">
        <stop stop-opacity="1" stop-color="white" offset="0%"/>
        <stop stop-opacity="1" stop-color="white" offset="100%"/>
      </linearGradient>
      <linearGradient x1="534" gradientUnits="userSpaceOnUse" x2="687" y1="-64.6043" y2="-24.6043" id="linearGradient4" spreadMethod="reflect">
        <stop stop-opacity="1" stop-color="white" offset="0%"/>
        <stop stop-opacity="1" stop-color="white" offset="100%"/>
      </linearGradient>
      <linearGradient x1="534" gradientUnits="userSpaceOnUse" x2="687" y1="-8.2086" y2="31.7914" id="linearGradient5" spreadMethod="reflect">
        <stop stop-opacity="1" stop-color="white" offset="0%"/>
        <stop stop-opacity="1" stop-color="white" offset="100%"/>
      </linearGradient>
      <linearGradient x1="534" gradientUnits="userSpaceOnUse" x2="687" y1="49.1252" y2="89.1252" id="linearGradient6" spreadMethod="reflect">
        <stop stop-opacity="1" stop-color="white" offset="0%"/>
        <stop stop-opacity="1" stop-color="white" offset="100%"/>
      </linearGradient>
      <linearGradient x1="785" gradientUnits="userSpaceOnUse" x2="938" y1="-64.6043" y2="-24.6043" id="linearGradient7" spreadMethod="reflect">
        <stop stop-opacity="1" stop-color="white" offset="0%"/>
        <stop stop-opacity="1" stop-color="white" offset="100%"/>
      </linearGradient>
      <linearGradient x1="785" gradientUnits="userSpaceOnUse" x2="938" y1="-8.2086" y2="31.7914" id="linearGradient8" spreadMethod="reflect">
        <stop stop-opacity="1" stop-color="white" offset="0%"/>
        <stop stop-opacity="1" stop-color="white" offset="100%"/>
      </linearGradient>
      <linearGradient x1="968" gradientUnits="userSpaceOnUse" x2="1121" y1="-64.6043" y2="-24.6043" id="linearGradient9" spreadMethod="reflect">
        <stop stop-opacity="1" stop-color="white" offset="0%"/>
        <stop stop-opacity="1" stop-color="white" offset="100%"/>
      </linearGradient>
      <linearGradient x1="968" gradientUnits="userSpaceOnUse" x2="1121" y1="-8.2086" y2="31.7914" id="linearGradient10" spreadMethod="reflect">
        <stop stop-opacity="1" stop-color="white" offset="0%"/>
        <stop stop-opacity="1" stop-color="white" offset="100%"/>
      </linearGradient>
      <clipPath clipPathUnits="userSpaceOnUse" id="clipPath1">
        <path d="M0 0 L829 0 L829 468 L0 468 L0 0 Z"/>
      </clipPath>
      <clipPath clipPathUnits="userSpaceOnUse" id="clipPath2">
        <path d="M321 -127 L1150 -127 L1150 341 L321 341 L321 -127 Z"/>
      </clipPath>
    </defs>
    <g fill="white" text-rendering="geometricPrecision" shape-rendering="geometricPrecision" transform="translate(-321,127)" stroke="white">
      <rect x="321" width="829" height="468" y="-127" clip-path="url(#clipPath2)" stroke="none"/>
    </g>
    <g fill="white" text-rendering="geometricPrecision" shape-rendering="geometricPrecision" transform="matrix(1,0,0,1,-321,127)" stroke="white">
      <rect x="336.5" width="177" height="62.201" y="263.6983" clip-path="url(#clipPath2)" stroke="none"/>
    </g>
    <g text-rendering="geometricPrecision" stroke-miterlimit="1.45" shape-rendering="geometricPrecision" transform="matrix(1,0,0,1,-321,127)" stroke-linecap="butt">
      <rect fill="none" x="336.5" width="177" height="62.201" y="263.6983" clip-path="url(#clipPath2)"/>
      <text x="353.957" font-size="16px" y="300.8457" clip-path="url(#clipPath2)" font-family="sans-serif" stroke="none" font-weight="bold" xml:space="preserve">Manager sediul 1</text>
    </g>
    <g fill="white" text-rendering="geometricPrecision" shape-rendering="geometricPrecision" transform="matrix(1,0,0,1,-321,127)" stroke="white">
      <rect x="336.5" width="364" height="216.1667" y="-111.4581" clip-path="url(#clipPath2)" stroke="none"/>
    </g>
    <g text-rendering="geometricPrecision" stroke-miterlimit="1.45" shape-rendering="geometricPrecision" transform="matrix(1,0,0,1,-321,127)" stroke-linecap="butt">
      <rect fill="none" x="336.5" width="364" height="216.1667" y="-111.4581" clip-path="url(#clipPath2)"/>
      <text x="346.1869" font-size="16px" y="-84.4828" clip-path="url(#clipPath2)" font-family="sans-serif" stroke="none" font-weight="bold" xml:space="preserve">Parcare sediul 1</text>
    </g>
    <g fill="white" text-rendering="geometricPrecision" shape-rendering="geometricPrecision" transform="matrix(1,0,0,1,-321,127)" stroke="white">
      <rect x="632.5" width="191" height="62.201" y="153.103" clip-path="url(#clipPath2)" stroke="none"/>
    </g>
    <g text-rendering="geometricPrecision" stroke-miterlimit="1.45" shape-rendering="geometricPrecision" transform="matrix(1,0,0,1,-321,127)" stroke-linecap="butt">
      <rect fill="none" x="632.5" width="191" height="62.201" y="153.103" clip-path="url(#clipPath2)"/>
      <text x="656.2422" font-size="16px" y="190.2503" clip-path="url(#clipPath2)" font-family="sans-serif" stroke="none" font-weight="bold" xml:space="preserve">Cloud Producător</text>
    </g>
    <g fill="url(#linearGradient1)" text-rendering="geometricPrecision" shape-rendering="geometricPrecision" transform="matrix(1,0,0,1,-321,127)" stroke="url(#linearGradient1)">
      <path d="M351 -64.6043 L504 -64.6043 L504 -24.6043 L351 -24.6043 Z" stroke="none" clip-path="url(#clipPath2)"/>
    </g>
    <g text-rendering="geometricPrecision" stroke-miterlimit="1.45" shape-rendering="geometricPrecision" transform="matrix(1,0,0,1,-321,127)" stroke-linecap="butt">
      <path fill="none" d="M351 -64.6043 L504 -64.6043 L504 -24.6043 L351 -24.6043 Z" clip-path="url(#clipPath2)"/>
      <text x="380.5752" xml:space="preserve" y="-40.0691" clip-path="url(#clipPath2)" font-family="sans-serif" stroke="none">Barieră intrare 1</text>
    </g>
    <g fill="url(#linearGradient2)" text-rendering="geometricPrecision" shape-rendering="geometricPrecision" transform="matrix(1,0,0,1,-321,127)" stroke="url(#linearGradient2)">
      <path d="M351 -8.2086 L504 -8.2086 L504 31.7914 L351 31.7914 Z" stroke="none" clip-path="url(#clipPath2)"/>
    </g>
    <g text-rendering="geometricPrecision" stroke-miterlimit="1.45" shape-rendering="geometricPrecision" transform="matrix(1,0,0,1,-321,127)" stroke-linecap="butt">
      <path fill="none" d="M351 -8.2086 L504 -8.2086 L504 31.7914 L351 31.7914 Z" clip-path="url(#clipPath2)"/>
      <text x="380.5752" xml:space="preserve" y="16.3266" clip-path="url(#clipPath2)" font-family="sans-serif" stroke="none">Barieră intrare 2</text>
    </g>
    <g fill="url(#linearGradient3)" text-rendering="geometricPrecision" shape-rendering="geometricPrecision" transform="matrix(1,0,0,1,-321,127)" stroke="url(#linearGradient3)">
      <path d="M351 49.1252 L504 49.1252 L504 89.1252 L351 89.1252 Z" stroke="none" clip-path="url(#clipPath2)"/>
    </g>
    <g text-rendering="geometricPrecision" stroke-miterlimit="1.45" shape-rendering="geometricPrecision" transform="matrix(1,0,0,1,-321,127)" stroke-linecap="butt">
      <path fill="none" d="M351 49.1252 L504 49.1252 L504 89.1252 L351 89.1252 Z" clip-path="url(#clipPath2)"/>
      <text x="380.5752" xml:space="preserve" y="73.6604" clip-path="url(#clipPath2)" font-family="sans-serif" stroke="none">Barieră intrare 3</text>
    </g>
    <g fill="url(#linearGradient4)" text-rendering="geometricPrecision" shape-rendering="geometricPrecision" transform="matrix(1,0,0,1,-321,127)" stroke="url(#linearGradient4)">
      <path d="M534 -64.6043 L687 -64.6043 L687 -24.6043 L534 -24.6043 Z" stroke="none" clip-path="url(#clipPath2)"/>
    </g>
    <g text-rendering="geometricPrecision" stroke-miterlimit="1.45" shape-rendering="geometricPrecision" transform="matrix(1,0,0,1,-321,127)" stroke-linecap="butt">
      <path fill="none" d="M534 -64.6043 L687 -64.6043 L687 -24.6043 L534 -24.6043 Z" clip-path="url(#clipPath2)"/>
      <text x="567.1758" xml:space="preserve" y="-40.0691" clip-path="url(#clipPath2)" font-family="sans-serif" stroke="none">Barieră ieșire 1</text>
    </g>
    <g fill="url(#linearGradient5)" text-rendering="geometricPrecision" shape-rendering="geometricPrecision" transform="matrix(1,0,0,1,-321,127)" stroke="url(#linearGradient5)">
      <path d="M534 -8.2086 L687 -8.2086 L687 31.7914 L534 31.7914 Z" stroke="none" clip-path="url(#clipPath2)"/>
    </g>
    <g text-rendering="geometricPrecision" stroke-miterlimit="1.45" shape-rendering="geometricPrecision" transform="matrix(1,0,0,1,-321,127)" stroke-linecap="butt">
      <path fill="none" d="M534 -8.2086 L687 -8.2086 L687 31.7914 L534 31.7914 Z" clip-path="url(#clipPath2)"/>
      <text x="567.1758" xml:space="preserve" y="16.3266" clip-path="url(#clipPath2)" font-family="sans-serif" stroke="none">Barieră ieșire 2</text>
    </g>
    <g fill="url(#linearGradient6)" text-rendering="geometricPrecision" shape-rendering="geometricPrecision" transform="matrix(1,0,0,1,-321,127)" stroke="url(#linearGradient6)">
      <path d="M534 49.1252 L687 49.1252 L687 89.1252 L534 89.1252 Z" stroke="none" clip-path="url(#clipPath2)"/>
    </g>
    <g text-rendering="geometricPrecision" stroke-miterlimit="1.45" shape-rendering="geometricPrecision" transform="matrix(1,0,0,1,-321,127)" stroke-linecap="butt">
      <path fill="none" d="M534 49.1252 L687 49.1252 L687 89.1252 L534 89.1252 Z" clip-path="url(#clipPath2)"/>
      <text x="567.1758" xml:space="preserve" y="73.6604" clip-path="url(#clipPath2)" font-family="sans-serif" stroke="none">Barieră ieșire 3</text>
    </g>
    <g fill="white" text-rendering="geometricPrecision" shape-rendering="geometricPrecision" transform="matrix(1,0,0,1,-321,127)" stroke="white">
      <rect x="543.5" width="177" height="62.201" y="263.6983" clip-path="url(#clipPath2)" stroke="none"/>
    </g>
    <g text-rendering="geometricPrecision" stroke-miterlimit="1.45" shape-rendering="geometricPrecision" transform="matrix(1,0,0,1,-321,127)" stroke-linecap="butt">
      <rect fill="none" x="543.5" width="177" height="62.201" y="263.6983" clip-path="url(#clipPath2)"/>
      <text x="562.582" font-size="16px" y="300.8457" clip-path="url(#clipPath2)" font-family="sans-serif" stroke="none" font-weight="bold" xml:space="preserve">Membru sediul 1</text>
    </g>
    <g fill="white" text-rendering="geometricPrecision" shape-rendering="geometricPrecision" transform="matrix(1,0,0,1,-321,127)" stroke="white">
      <rect x="750.5" width="177" height="62.201" y="263.6983" clip-path="url(#clipPath2)" stroke="none"/>
    </g>
    <g text-rendering="geometricPrecision" stroke-miterlimit="1.45" shape-rendering="geometricPrecision" transform="matrix(1,0,0,1,-321,127)" stroke-linecap="butt">
      <rect fill="none" x="750.5" width="177" height="62.201" y="263.6983" clip-path="url(#clipPath2)"/>
      <text x="767.957" font-size="16px" y="300.8457" clip-path="url(#clipPath2)" font-family="sans-serif" stroke="none" font-weight="bold" xml:space="preserve">Manager sediul 2</text>
    </g>
    <g fill="white" text-rendering="geometricPrecision" shape-rendering="geometricPrecision" transform="matrix(1,0,0,1,-321,127)" stroke="white">
      <rect x="957.5" width="177" height="62.201" y="263.6983" clip-path="url(#clipPath2)" stroke="none"/>
    </g>
    <g text-rendering="geometricPrecision" stroke-miterlimit="1.45" shape-rendering="geometricPrecision" transform="matrix(1,0,0,1,-321,127)" stroke-linecap="butt">
      <rect fill="none" x="957.5" width="177" height="62.201" y="263.6983" clip-path="url(#clipPath2)"/>
      <text x="976.582" font-size="16px" y="300.8457" clip-path="url(#clipPath2)" font-family="sans-serif" stroke="none" font-weight="bold" xml:space="preserve">Membru sediul 2</text>
    </g>
    <g fill="white" text-rendering="geometricPrecision" shape-rendering="geometricPrecision" transform="matrix(1,0,0,1,-321,127)" stroke="white">
      <rect x="770.5" width="364" height="161.1667" y="-111.4581" clip-path="url(#clipPath2)" stroke="none"/>
    </g>
    <g text-rendering="geometricPrecision" stroke-miterlimit="1.45" shape-rendering="geometricPrecision" transform="matrix(1,0,0,1,-321,127)" stroke-linecap="butt">
      <rect fill="none" x="770.5" width="364" height="161.1667" y="-111.4581" clip-path="url(#clipPath2)"/>
      <text x="780.1869" font-size="16px" y="-86.9016" clip-path="url(#clipPath2)" font-family="sans-serif" stroke="none" font-weight="bold" xml:space="preserve">Parcare sediul 2</text>
    </g>
    <g fill="url(#linearGradient7)" text-rendering="geometricPrecision" shape-rendering="geometricPrecision" transform="matrix(1,0,0,1,-321,127)" stroke="url(#linearGradient7)">
      <path d="M785 -64.6043 L938 -64.6043 L938 -24.6043 L785 -24.6043 Z" stroke="none" clip-path="url(#clipPath2)"/>
    </g>
    <g text-rendering="geometricPrecision" stroke-miterlimit="1.45" shape-rendering="geometricPrecision" transform="matrix(1,0,0,1,-321,127)" stroke-linecap="butt">
      <path fill="none" d="M785 -64.6043 L938 -64.6043 L938 -24.6043 L785 -24.6043 Z" clip-path="url(#clipPath2)"/>
      <text x="814.5752" xml:space="preserve" y="-40.0691" clip-path="url(#clipPath2)" font-family="sans-serif" stroke="none">Barieră intrare 1</text>
    </g>
    <g fill="url(#linearGradient8)" text-rendering="geometricPrecision" shape-rendering="geometricPrecision" transform="matrix(1,0,0,1,-321,127)" stroke="url(#linearGradient8)">
      <path d="M785 -8.2086 L938 -8.2086 L938 31.7914 L785 31.7914 Z" stroke="none" clip-path="url(#clipPath2)"/>
    </g>
    <g text-rendering="geometricPrecision" stroke-miterlimit="1.45" shape-rendering="geometricPrecision" transform="matrix(1,0,0,1,-321,127)" stroke-linecap="butt">
      <path fill="none" d="M785 -8.2086 L938 -8.2086 L938 31.7914 L785 31.7914 Z" clip-path="url(#clipPath2)"/>
      <text x="814.5752" xml:space="preserve" y="16.3266" clip-path="url(#clipPath2)" font-family="sans-serif" stroke="none">Barieră intrare 2</text>
    </g>
    <g fill="url(#linearGradient9)" text-rendering="geometricPrecision" shape-rendering="geometricPrecision" transform="matrix(1,0,0,1,-321,127)" stroke="url(#linearGradient9)">
      <path d="M968 -64.6043 L1121 -64.6043 L1121 -24.6043 L968 -24.6043 Z" stroke="none" clip-path="url(#clipPath2)"/>
    </g>
    <g text-rendering="geometricPrecision" stroke-miterlimit="1.45" shape-rendering="geometricPrecision" transform="matrix(1,0,0,1,-321,127)" stroke-linecap="butt">
      <path fill="none" d="M968 -64.6043 L1121 -64.6043 L1121 -24.6043 L968 -24.6043 Z" clip-path="url(#clipPath2)"/>
      <text x="1001.1758" xml:space="preserve" y="-40.0691" clip-path="url(#clipPath2)" font-family="sans-serif" stroke="none">Barieră ieșire 1</text>
    </g>
    <g fill="url(#linearGradient10)" text-rendering="geometricPrecision" shape-rendering="geometricPrecision" transform="matrix(1,0,0,1,-321,127)" stroke="url(#linearGradient10)">
      <path d="M968 -8.2086 L1121 -8.2086 L1121 31.7914 L968 31.7914 Z" stroke="none" clip-path="url(#clipPath2)"/>
    </g>
    <g text-rendering="geometricPrecision" stroke-miterlimit="1.45" shape-rendering="geometricPrecision" transform="matrix(1,0,0,1,-321,127)" stroke-linecap="butt">
      <path fill="none" d="M968 -8.2086 L1121 -8.2086 L1121 31.7914 L968 31.7914 Z" clip-path="url(#clipPath2)"/>
      <text x="1001.1758" xml:space="preserve" y="16.3266" clip-path="url(#clipPath2)" font-family="sans-serif" stroke="none">Barieră ieșire 2</text>
    </g>
    <g text-rendering="geometricPrecision" stroke-miterlimit="1.45" shape-rendering="geometricPrecision" transform="matrix(1,0,0,1,-321,127)" stroke-linecap="butt">
      <path fill="none" d="M517.7216 260.9553 L635.2784 218.047" clip-path="url(#clipPath2)"/>
      <path d="M510.2066 263.6983 L523.1935 264.2807 L518.661 260.6125 L519.7648 254.8869 Z" clip-path="url(#clipPath2)" stroke="none"/>
      <path d="M642.7935 215.304 L629.8065 214.7216 L634.3391 218.3898 L633.2353 224.1154 Z" clip-path="url(#clipPath2)" stroke="none"/>
      <path fill="none" d="M460.166 -19.7316 L680.7899 148.2565" clip-path="url(#clipPath2)"/>
      <path d="M453.8011 -24.578 L460.3195 -13.3303 L460.9616 -19.1258 L466.3775 -21.2865 Z" clip-path="url(#clipPath2)" stroke="none"/>
      <path d="M687.1548 153.103 L680.6364 141.8553 L679.9943 147.6507 L674.5784 149.8114 Z" clip-path="url(#clipPath2)" stroke="none"/>
      <path fill="none" d="M469.3237 35.7878 L666.8554 149.1217" clip-path="url(#clipPath2)"/>
      <path d="M462.3847 31.8065 L470.3049 42.1153 L470.1911 36.2854 L475.2815 33.4415 Z" clip-path="url(#clipPath2)" stroke="none"/>
      <path d="M673.7944 153.103 L665.8742 142.7942 L665.988 148.6241 L660.8976 151.4679 Z" clip-path="url(#clipPath2)" stroke="none"/>
      <path fill="none" d="M487.1696 91.9761 L639.3174 150.2419" clip-path="url(#clipPath2)"/>
      <path d="M479.6987 89.115 L489.1169 98.0759 L488.1035 92.3337 L492.6932 88.7372 Z" clip-path="url(#clipPath2)" stroke="none"/>
      <path d="M646.7883 153.103 L637.3701 144.1421 L638.3835 149.8843 L633.7938 153.4807 Z" clip-path="url(#clipPath2)" stroke="none"/>
      <path fill="none" d="M624.4387 -17.4615 L708.3744 145.9865" clip-path="url(#clipPath2)"/>
      <path d="M620.7841 -24.578 L621.8181 -11.6192 L624.8954 -16.572 L630.7137 -16.1874 Z" clip-path="url(#clipPath2)" stroke="none"/>
      <path d="M712.0289 153.103 L710.9949 140.1441 L707.9176 145.0969 L702.0993 144.7123 Z" clip-path="url(#clipPath2)" stroke="none"/>
      <path fill="none" d="M628.6458 38.4173 L702.2995 146.4922" clip-path="url(#clipPath2)"/>
      <path d="M624.1404 31.8065 L626.7667 44.5385 L629.2089 39.2437 L635.0302 38.9069 Z" clip-path="url(#clipPath2)" stroke="none"/>
      <path d="M706.8048 153.103 L704.1786 140.371 L701.7363 145.6658 L695.9151 146.0026 Z" clip-path="url(#clipPath2)" stroke="none"/>
      <path fill="none" d="M636.6116 94.6986 L690.5295 147.5053" clip-path="url(#clipPath2)"/>
      <path d="M630.8961 89.101 L635.9708 101.0696 L637.326 95.3983 L642.9678 93.9253 Z" clip-path="url(#clipPath2)" stroke="none"/>
      <path d="M696.245 153.103 L691.1703 141.1343 L689.8151 146.8056 L684.1733 148.2786 Z" clip-path="url(#clipPath2)" stroke="none"/>
      <path fill="none" d="M664.2403 257.6569 L695.7597 221.3454" clip-path="url(#clipPath2)"/>
      <path d="M658.9962 263.6983 L670.6382 257.9138 L664.8958 256.9017 L663.0865 251.3586 Z" clip-path="url(#clipPath2)" stroke="none"/>
      <path d="M701.0038 215.3039 L689.3618 221.0885 L695.1042 222.1006 L696.9135 227.6437 Z" clip-path="url(#clipPath2)" stroke="none"/>
      <path fill="none" d="M802.1185 258.0518 L764.8815 220.9505" clip-path="url(#clipPath2)"/>
      <path d="M807.7857 263.6983 L802.814 251.6866 L801.4102 257.346 L795.7559 258.7705 Z" clip-path="url(#clipPath2)" stroke="none"/>
      <path d="M759.2143 215.3039 L764.186 227.3157 L765.5898 221.6563 L771.2441 220.2317 Z" clip-path="url(#clipPath2)" stroke="none"/>
      <path fill="none" d="M949.9439 261.392 L824.9808 217.9318" clip-path="url(#clipPath2)"/>
      <path d="M957.5 264.0199 L947.8083 255.3555 L948.9995 261.0635 L944.5234 264.8006 Z" clip-path="url(#clipPath2)" stroke="none"/>
      <path d="M817.4247 215.3039 L827.1164 223.9683 L825.9253 218.2603 L830.4012 214.5232 Z" clip-path="url(#clipPath2)" stroke="none"/>
      <path fill="none" d="M845.7839 -17.6682 L750.1775 146.1931" clip-path="url(#clipPath2)"/>
      <path d="M849.8155 -24.578 L839.4494 -16.733 L845.2799 -16.8044 L848.0867 -11.6935 Z" clip-path="url(#clipPath2)" stroke="none"/>
      <path d="M746.1459 153.103 L756.512 145.2579 L750.6815 145.3294 L747.8746 140.2184 Z" clip-path="url(#clipPath2)" stroke="none"/>
      <path fill="none" d="M841.1043 38.132 L756.9792 146.7775" clip-path="url(#clipPath2)"/>
      <path d="M846.0021 31.8065 L834.702 38.2336 L840.4921 38.9227 L842.6088 44.3558 Z" clip-path="url(#clipPath2)" stroke="none"/>
      <path d="M752.0814 153.103 L763.3815 146.6759 L757.5914 145.9868 L755.4747 140.5536 Z" clip-path="url(#clipPath2)" stroke="none"/>
      <path fill="none" d="M1010.3152 -19.8911 L777.5032 148.416" clip-path="url(#clipPath2)"/>
      <path d="M1016.7985 -24.578 L1004.1443 -21.5997 L1009.5049 -19.3052 L1010.003 -13.4956 Z" clip-path="url(#clipPath2)" stroke="none"/>
      <path d="M771.02 153.103 L783.6742 150.1246 L778.3136 147.8302 L777.8155 142.0205 Z" clip-path="url(#clipPath2)" stroke="none"/>
      <path fill="none" d="M1000.7326 35.6335 L792.117 149.276" clip-path="url(#clipPath2)"/>
      <path d="M1007.7579 31.8065 L994.8281 33.1562 L999.8544 36.1119 L999.6118 41.9378 Z" clip-path="url(#clipPath2)" stroke="none"/>
      <path d="M785.0917 153.103 L798.0215 151.7533 L792.9952 148.7976 L793.2378 142.9717 Z" clip-path="url(#clipPath2)" stroke="none"/>
    </g>
  </g>
</svg>
