<?xml version="1.0" encoding="UTF-8"?><svg xmlns="http://www.w3.org/2000/svg" xmlns:xlink="http://www.w3.org/1999/xlink" fill-opacity="1" color-rendering="auto" color-interpolation="auto" text-rendering="auto" stroke="black" stroke-linecap="square" width="302" stroke-miterlimit="10" shape-rendering="auto" stroke-opacity="1" fill="black" stroke-dasharray="none" font-weight="normal" stroke-width="1" height="739" font-family="'Dialog'" font-style="normal" stroke-linejoin="miter" font-size="12px" stroke-dashoffset="0" image-rendering="auto">
  <!--Generated by ySVG 2.6-->
  <defs id="genericDefs"/>
  <g>
    <defs id="defs1">
      <clipPath clipPathUnits="userSpaceOnUse" id="clipPath1">
        <path d="M0 0 L302 0 L302 739 L0 739 L0 0 Z"/>
      </clipPath>
      <clipPath clipPathUnits="userSpaceOnUse" id="clipPath2">
        <path d="M166 15 L468 15 L468 754 L166 754 L166 15 Z"/>
      </clipPath>
    </defs>
    <g fill="white" text-rendering="geometricPrecision" shape-rendering="geometricPrecision" transform="translate(-166,-15)" stroke="white">
      <rect x="166" width="302" height="739" y="15" clip-path="url(#clipPath2)" stroke="none"/>
    </g>
    <g fill="white" text-rendering="geometricPrecision" shape-rendering="geometricPrecision" transform="matrix(1,0,0,1,-166,-15)" stroke="white">
      <rect x="181.2994" width="138.4011" height="41" y="93" clip-path="url(#clipPath2)" stroke="none"/>
    </g>
    <g text-rendering="geometricPrecision" stroke-miterlimit="1.45" shape-rendering="geometricPrecision" transform="matrix(1,0,0,1,-166,-15)" stroke-linecap="butt">
      <rect fill="none" x="181.2994" width="138.4011" height="41" y="93" clip-path="url(#clipPath2)"/>
      <text x="196.6348" xml:space="preserve" y="110.9688" clip-path="url(#clipPath2)" font-family="sans-serif" stroke="none">Capturare imagine</text>
      <text x="186.6855" xml:space="preserve" y="125.1016" clip-path="url(#clipPath2)" font-family="sans-serif" stroke="none">(la interval prestabilit)</text>
    </g>
    <g fill="white" text-rendering="geometricPrecision" shape-rendering="geometricPrecision" transform="matrix(1,0,0,1,-166,-15)" stroke="white">
      <ellipse rx="44.5" ry="16.5" clip-path="url(#clipPath2)" cx="250.5" cy="46.5" stroke="none"/>
    </g>
    <g text-rendering="geometricPrecision" stroke-miterlimit="1.45" shape-rendering="geometricPrecision" transform="matrix(1,0,0,1,-166,-15)" stroke-linecap="butt">
      <ellipse rx="44.5" fill="none" ry="16.5" clip-path="url(#clipPath2)" cx="250.5" cy="46.5"/>
      <text x="237.0117" xml:space="preserve" y="51.0352" clip-path="url(#clipPath2)" font-family="sans-serif" stroke="none">Start</text>
    </g>
    <g fill="white" text-rendering="geometricPrecision" shape-rendering="geometricPrecision" transform="matrix(1,0,0,1,-166,-15)" stroke="white">
      <rect x="181.2994" width="138.4011" height="41" y="164" clip-path="url(#clipPath2)" stroke="none"/>
    </g>
    <g text-rendering="geometricPrecision" stroke-miterlimit="1.45" shape-rendering="geometricPrecision" transform="matrix(1,0,0,1,-166,-15)" stroke-linecap="butt">
      <rect fill="none" x="181.2994" width="138.4011" height="41" y="164" clip-path="url(#clipPath2)"/>
      <text x="190.6846" xml:space="preserve" y="181.9688" clip-path="url(#clipPath2)" font-family="sans-serif" stroke="none">Recunoaștere număr</text>
      <text x="216.1758" xml:space="preserve" y="196.1016" clip-path="url(#clipPath2)" font-family="sans-serif" stroke="none">din imagine</text>
    </g>
    <g fill="white" text-rendering="geometricPrecision" shape-rendering="geometricPrecision" transform="matrix(1,0,0,1,-166,-15)" stroke="white">
      <rect x="181.2994" width="138.4011" height="41" y="460" clip-path="url(#clipPath2)" stroke="none"/>
    </g>
    <g text-rendering="geometricPrecision" stroke-miterlimit="1.45" shape-rendering="geometricPrecision" transform="matrix(1,0,0,1,-166,-15)" stroke-linecap="butt">
      <rect fill="none" x="181.2994" width="138.4011" height="41" y="460" clip-path="url(#clipPath2)"/>
      <text x="211.21" xml:space="preserve" y="477.9688" clip-path="url(#clipPath2)" font-family="sans-serif" stroke="none">Afișare mesaj</text>
      <text x="207.1758" xml:space="preserve" y="492.1016" clip-path="url(#clipPath2)" font-family="sans-serif" stroke="none">„Acces permis”</text>
    </g>
    <g fill="white" text-rendering="geometricPrecision" shape-rendering="geometricPrecision" transform="matrix(1,0,0,1,-166,-15)" stroke="white">
      <path d="M181.2994 258.5 L250.5 235 L319.7004 258.5 L250.5 282 Z" fill-rule="evenodd" clip-path="url(#clipPath2)" stroke="none"/>
    </g>
    <g text-rendering="geometricPrecision" stroke-miterlimit="1.45" shape-rendering="geometricPrecision" transform="matrix(1,0,0,1,-166,-15)" stroke-linecap="butt">
      <path fill="none" d="M181.2994 258.5 L250.5 235 L319.7004 258.5 L250.5 282 Z" fill-rule="evenodd" clip-path="url(#clipPath2)"/>
      <text x="230.9736" xml:space="preserve" y="255.9688" clip-path="url(#clipPath2)" font-family="sans-serif" stroke="none">Număr</text>
      <text x="224.3877" xml:space="preserve" y="270.1016" clip-path="url(#clipPath2)" font-family="sans-serif" stroke="none">detectat?</text>
      <text x="336.5443" xml:space="preserve" y="252.6016" clip-path="url(#clipPath2)" font-family="sans-serif" stroke="none">Nu</text>
      <text x="211.7757" xml:space="preserve" y="299.6016" clip-path="url(#clipPath2)" font-family="sans-serif" stroke="none">Da</text>
    </g>
    <g fill="white" text-rendering="geometricPrecision" shape-rendering="geometricPrecision" transform="matrix(1,0,0,1,-166,-15)" stroke="white">
      <rect x="181.2994" width="138.4011" height="41" y="312" clip-path="url(#clipPath2)" stroke="none"/>
    </g>
    <g text-rendering="geometricPrecision" stroke-miterlimit="1.45" shape-rendering="geometricPrecision" transform="matrix(1,0,0,1,-166,-15)" stroke-linecap="butt">
      <rect fill="none" x="181.2994" width="138.4011" height="41" y="312" clip-path="url(#clipPath2)"/>
      <text x="202.2041" xml:space="preserve" y="329.9688" clip-path="url(#clipPath2)" font-family="sans-serif" stroke="none">Verificare număr</text>
      <text x="205.708" xml:space="preserve" y="344.1016" clip-path="url(#clipPath2)" font-family="sans-serif" stroke="none">în baza de date</text>
    </g>
    <g fill="white" text-rendering="geometricPrecision" shape-rendering="geometricPrecision" transform="matrix(1,0,0,1,-166,-15)" stroke="white">
      <path d="M181.2994 406.5001 L250.5 383 L319.7007 406.5001 L250.5 430.0001 Z" fill-rule="evenodd" clip-path="url(#clipPath2)" stroke="none"/>
    </g>
    <g text-rendering="geometricPrecision" stroke-miterlimit="1.45" shape-rendering="geometricPrecision" transform="matrix(1,0,0,1,-166,-15)" stroke-linecap="butt">
      <path fill="none" d="M181.2994 406.5001 L250.5 383 L319.7007 406.5001 L250.5 430.0001 Z" fill-rule="evenodd" clip-path="url(#clipPath2)"/>
      <text x="233.8125" xml:space="preserve" y="403.9688" clip-path="url(#clipPath2)" font-family="sans-serif" stroke="none">Acces</text>
      <text x="221.8154" xml:space="preserve" y="418.1016" clip-path="url(#clipPath2)" font-family="sans-serif" stroke="none">autorizat?</text>
      <text x="336.5443" xml:space="preserve" y="400.6016" clip-path="url(#clipPath2)" font-family="sans-serif" stroke="none">Nu</text>
      <text x="220.2338" xml:space="preserve" y="447.6016" clip-path="url(#clipPath2)" font-family="sans-serif" stroke="none">Da</text>
    </g>
    <g fill="white" text-rendering="geometricPrecision" shape-rendering="geometricPrecision" transform="matrix(1,0,0,1,-166,-15)" stroke="white">
      <rect x="181.2994" width="138.4011" height="41" y="531" clip-path="url(#clipPath2)" stroke="none"/>
    </g>
    <g text-rendering="geometricPrecision" stroke-miterlimit="1.45" shape-rendering="geometricPrecision" transform="matrix(1,0,0,1,-166,-15)" stroke-linecap="butt">
      <rect fill="none" x="181.2994" width="138.4011" height="41" y="531" clip-path="url(#clipPath2)"/>
      <text x="221.7539" xml:space="preserve" y="548.9688" clip-path="url(#clipPath2)" font-family="sans-serif" stroke="none">Aprindere</text>
      <text x="221.6338" xml:space="preserve" y="563.1016" clip-path="url(#clipPath2)" font-family="sans-serif" stroke="none">LED verde</text>
    </g>
    <g fill="white" text-rendering="geometricPrecision" shape-rendering="geometricPrecision" transform="matrix(1,0,0,1,-166,-15)" stroke="white">
      <rect x="181.2994" width="138.4011" height="41" y="602" clip-path="url(#clipPath2)" stroke="none"/>
    </g>
    <g text-rendering="geometricPrecision" stroke-miterlimit="1.45" shape-rendering="geometricPrecision" transform="matrix(1,0,0,1,-166,-15)" stroke-linecap="butt">
      <rect fill="none" x="181.2994" width="138.4011" height="41" y="602" clip-path="url(#clipPath2)"/>
      <text x="209.5488" xml:space="preserve" y="619.9688" clip-path="url(#clipPath2)" font-family="sans-serif" stroke="none">Înregistrare în</text>
      <text x="213.0645" xml:space="preserve" y="634.1016" clip-path="url(#clipPath2)" font-family="sans-serif" stroke="none">baza de date</text>
    </g>
    <g fill="white" text-rendering="geometricPrecision" shape-rendering="geometricPrecision" transform="matrix(1,0,0,1,-166,-15)" stroke="white">
      <rect x="181.2994" width="138.4011" height="41" y="673" clip-path="url(#clipPath2)" stroke="none"/>
    </g>
    <g text-rendering="geometricPrecision" stroke-miterlimit="1.45" shape-rendering="geometricPrecision" transform="matrix(1,0,0,1,-166,-15)" stroke-linecap="butt">
      <rect fill="none" x="181.2994" width="138.4011" height="41" y="673" clip-path="url(#clipPath2)"/>
      <text x="222.7881" xml:space="preserve" y="690.9688" clip-path="url(#clipPath2)" font-family="sans-serif" stroke="none">Acționare</text>
      <text x="198.7617" xml:space="preserve" y="705.1016" clip-path="url(#clipPath2)" font-family="sans-serif" stroke="none">mecanism barieră</text>
    </g>
    <g fill="white" text-rendering="geometricPrecision" shape-rendering="geometricPrecision" transform="matrix(1,0,0,1,-166,-15)" stroke="white">
      <rect x="335.7006" width="98.4513" height="41" y="460" clip-path="url(#clipPath2)" stroke="none"/>
    </g>
    <g text-rendering="geometricPrecision" stroke-miterlimit="1.45" shape-rendering="geometricPrecision" transform="matrix(1,0,0,1,-166,-15)" stroke-linecap="butt">
      <rect fill="none" x="335.7006" width="98.4513" height="41" y="460" clip-path="url(#clipPath2)"/>
      <text x="345.6361" xml:space="preserve" y="477.9688" clip-path="url(#clipPath2)" font-family="sans-serif" stroke="none">Afișare mesaj</text>
      <text x="339.8383" xml:space="preserve" y="492.1016" clip-path="url(#clipPath2)" font-family="sans-serif" stroke="none">„Acces interzis”</text>
    </g>
    <g fill="white" text-rendering="geometricPrecision" shape-rendering="geometricPrecision" transform="matrix(1,0,0,1,-166,-15)" stroke="white">
      <rect x="335.7006" width="98.4513" height="41" y="531" clip-path="url(#clipPath2)" stroke="none"/>
    </g>
    <g text-rendering="geometricPrecision" stroke-miterlimit="1.45" shape-rendering="geometricPrecision" transform="matrix(1,0,0,1,-166,-15)" stroke-linecap="butt">
      <rect fill="none" x="335.7006" width="98.4513" height="41" y="531" clip-path="url(#clipPath2)"/>
      <text x="356.1801" xml:space="preserve" y="548.9688" clip-path="url(#clipPath2)" font-family="sans-serif" stroke="none">Aprindere</text>
      <text x="359.1596" xml:space="preserve" y="563.1016" clip-path="url(#clipPath2)" font-family="sans-serif" stroke="none">LED roșu</text>
      <path fill="none" d="M250.5 63 L250.5 85" clip-path="url(#clipPath2)"/>
      <path d="M250.5 93 L255.5 81 L250.5 84 L245.5 81 Z" clip-path="url(#clipPath2)" stroke="none"/>
      <path fill="none" d="M250.5 134 L250.5 156" clip-path="url(#clipPath2)"/>
      <path d="M250.5 164 L255.5 152 L250.5 155 L245.5 152 Z" clip-path="url(#clipPath2)" stroke="none"/>
      <path fill="none" d="M250.5 205 L250.5 227.0154" clip-path="url(#clipPath2)"/>
      <path d="M250.5 235.0154 L255.5 223.0154 L250.5 226.0154 L245.5 223.0154 Z" clip-path="url(#clipPath2)" stroke="none"/>
      <path fill="none" d="M319.7003 258.5 L367 258.5 L367 113.5 L327.7006 113.5" clip-path="url(#clipPath2)"/>
      <path d="M319.7006 113.5 L331.7006 118.5 L328.7006 113.5 L331.7006 108.5 Z" clip-path="url(#clipPath2)" stroke="none"/>
      <path fill="none" d="M250.5 282.0225 L250.5 304" clip-path="url(#clipPath2)"/>
      <path d="M250.5 312 L255.5 300 L250.5 303 L245.5 300 Z" clip-path="url(#clipPath2)" stroke="none"/>
      <path fill="none" d="M250.5 353 L250.5 375.0154" clip-path="url(#clipPath2)"/>
      <path d="M250.5 383.0154 L255.5 371.0154 L250.5 374.0154 L245.5 371.0154 Z" clip-path="url(#clipPath2)" stroke="none"/>
      <path fill="none" d="M250.5 430.0225 L250.5 452" clip-path="url(#clipPath2)"/>
      <path d="M250.5 460 L255.5 448 L250.5 451 L245.5 448 Z" clip-path="url(#clipPath2)" stroke="none"/>
      <path fill="none" d="M250.5 501 L250.5 523" clip-path="url(#clipPath2)"/>
      <path d="M250.5 531 L255.5 519 L250.5 522 L245.5 519 Z" clip-path="url(#clipPath2)" stroke="none"/>
      <path fill="none" d="M250.5 572 L250.5 594" clip-path="url(#clipPath2)"/>
      <path d="M250.5 602 L255.5 590 L250.5 593 L245.5 590 Z" clip-path="url(#clipPath2)" stroke="none"/>
      <path fill="none" d="M250.5 643 L250.5 665" clip-path="url(#clipPath2)"/>
      <path d="M250.5 673 L255.5 661 L250.5 664 L245.5 661 Z" clip-path="url(#clipPath2)" stroke="none"/>
      <path fill="none" d="M250.5 714 L250.5 738.7966 L452.5515 738.7966 L452.5515 113.5 L327.7103 113.5" clip-path="url(#clipPath2)"/>
      <path d="M319.7103 113.5 L331.7103 118.5 L328.7103 113.5 L331.7103 108.5 Z" clip-path="url(#clipPath2)" stroke="none"/>
      <path fill="none" d="M319.7151 406.5 L384.9262 406.5 L384.9262 452" clip-path="url(#clipPath2)"/>
      <path d="M384.9262 460 L389.9262 448 L384.9262 451 L379.9262 448 Z" clip-path="url(#clipPath2)" stroke="none"/>
      <path fill="none" d="M384.9262 501 L384.9262 523" clip-path="url(#clipPath2)"/>
      <path d="M384.9262 531 L389.9262 519 L384.9262 522 L379.9262 519 Z" clip-path="url(#clipPath2)" stroke="none"/>
      <path fill="none" d="M384.9262 572 L384.9262 634.5 L452.5515 634.5 L452.5515 113.5 L327.7101 113.5" clip-path="url(#clipPath2)"/>
      <path d="M319.7101 113.5 L331.7101 118.5 L328.7101 113.5 L331.7101 108.5 Z" clip-path="url(#clipPath2)" stroke="none"/>
    </g>
  </g>
</svg>
